<?xml version="1.0" standalone="no"?>
<!DOCTYPE svg PUBLIC "-//W3C//DTD SVG 20010904//EN"
 "http://www.w3.org/TR/2001/REC-SVG-20010904/DTD/svg10.dtd">
<svg version="1.0" xmlns="http://www.w3.org/2000/svg"
 width="1118.000000pt" height="425.000000pt" viewBox="0 0 1118.000000 425.000000"
 preserveAspectRatio="xMidYMid meet">
<metadata>
Created by potrace 1.15, written by Peter Selinger 2001-2017
</metadata>
<g transform="translate(0.000000,425.000000) scale(0.100000,-0.100000)"
fill="#000000" stroke="none">
<path d="M4321 4206 c-30 -31 -34 -44 -62 -197 -42 -240 -102 -392 -250 -645
-99 -169 -383 -583 -484 -706 l-22 -26 -134 60 c-210 94 -297 90 -348 -16 -52
-107 -5 -183 168 -269 l84 -42 -109 -104 c-60 -57 -185 -164 -279 -239 -194
-154 -241 -196 -261 -234 -21 -41 -18 -100 9 -138 110 -163 351 -40 818 417
l165 162 54 -20 c132 -50 631 -189 679 -189 8 0 11 49 9 166 l-3 167 -130 32
c-130 33 -385 112 -385 120 0 3 27 40 59 83 136 180 292 435 402 654 l59 119
3 439 c1 242 0 440 -4 440 -3 0 -20 -15 -38 -34z"/>
<path d="M174 4146 c-50 -22 -74 -61 -74 -122 0 -49 -2 -54 -33 -73 -51 -31
-71 -76 -65 -149 5 -72 27 -103 95 -134 50 -22 47 -15 68 -203 58 -539 69
-1148 30 -1590 -8 -93 -31 -291 -51 -438 -37 -268 -37 -268 -17 -295 50 -68
129 -88 206 -54 36 16 52 32 73 69 l27 48 336 0 c257 1 368 5 470 18 752 96
1196 389 1375 905 66 191 81 294 80 567 0 260 -11 344 -70 521 -125 375 -421
653 -839 787 -342 110 -761 133 -1200 66 -71 -10 -137 -21 -145 -24 -10 -3
-22 10 -35 37 -12 26 -33 48 -55 60 -41 21 -131 23 -176 4z m1201 -391 c304
-46 514 -142 686 -314 144 -144 215 -278 260 -491 28 -135 31 -386 5 -529 -70
-394 -289 -653 -656 -775 -230 -76 -447 -105 -864 -113 l-309 -6 6 59 c41 376
41 376 42 884 0 523 -9 694 -54 1085 -11 91 -14 152 -8 156 15 11 246 45 422
63 76 8 370 -4 470 -19z"/>
<path d="M10170 2912 c0 -299 -3 -451 -10 -447 -12 7 -5 -10 39 -108 17 -38
31 -71 31 -74 0 -3 -21 -3 -47 0 -27 2 -40 2 -30 0 15 -4 17 -21 17 -169 l0
-164 63 0 c34 0 85 -3 112 -6 l50 -6 103 -208 c224 -451 318 -570 449 -570
100 0 147 48 147 150 1 66 -23 120 -152 348 -86 151 -152 276 -152 287 0 3 24
5 53 5 64 0 114 24 144 69 31 46 32 150 3 198 -36 59 -67 68 -225 65 l-141 -3
-23 48 c-91 186 -259 584 -362 858 l-68 180 -1 -453z"/>
<path d="M9935 935 c-66 -66 16 -163 93 -109 16 11 22 25 22 55 0 73 -66 104
-115 54z"/>
<path d="M8017 933 c-4 -3 -7 -16 -7 -29 0 -12 -7 -24 -15 -28 -23 -9 -19 -71
5 -87 17 -11 23 -31 30 -104 15 -139 12 -399 -6 -535 -12 -94 -13 -124 -4
-136 18 -20 66 -18 82 5 11 16 32 19 158 24 204 8 317 43 413 128 143 125 168
420 51 582 -19 26 -55 63 -82 82 -96 71 -288 108 -447 86 -69 -10 -81 -9 -91
4 -11 15 -74 21 -87 8z m467 -143 c130 -49 196 -151 196 -299 0 -114 -21 -173
-84 -237 -73 -72 -144 -94 -323 -101 l-131 -6 5 189 c4 114 1 242 -6 323 -7
73 -9 136 -6 139 29 29 265 23 349 -8z"/>
<path d="M10450 830 c-8 -5 -38 -10 -66 -10 -67 0 -115 -21 -162 -70 -77 -79
-84 -231 -14 -293 l20 -19 -38 -55 c-44 -63 -58 -107 -39 -129 10 -13 31 -14
124 -8 154 9 214 -12 185 -67 -19 -34 -70 -52 -152 -53 -71 -1 -79 1 -105 27
-49 46 -103 32 -103 -26 0 -68 109 -116 235 -103 151 16 232 71 242 167 5 56
-20 106 -67 134 -29 17 -53 20 -142 20 -68 0 -104 4 -101 10 21 37 38 45 97
45 82 0 129 15 173 53 80 71 92 153 38 280 -6 14 -2 17 27 17 58 0 79 44 36
74 -26 18 -163 22 -188 6z m16 -134 c30 -30 34 -40 34 -86 0 -44 -4 -56 -29
-81 -26 -25 -37 -29 -86 -29 -69 0 -93 12 -110 54 -24 58 11 142 70 166 45 19
86 11 121 -24z"/>
<path d="M9074 791 c-89 -23 -172 -112 -205 -223 -18 -57 -21 -87 -17 -162 9
-171 80 -246 233 -246 78 0 119 15 174 66 35 30 41 43 39 68 -2 21 -11 35 -30
46 -26 14 -29 13 -60 -16 -54 -50 -80 -64 -124 -64 -69 0 -124 62 -124 140 l0
30 75 0 c77 0 259 31 294 50 27 14 34 46 29 120 -5 73 -43 134 -106 168 -46
25 -128 36 -178 23z m116 -106 c30 -16 52 -49 64 -97 6 -25 3 -27 -47 -38 -28
-7 -94 -14 -144 -17 -109 -7 -112 -3 -60 73 21 32 48 57 77 72 52 26 71 27
110 7z"/>
<path d="M10735 776 c-9 -14 -19 -50 -22 -80 -6 -62 25 -507 39 -544 12 -36
68 -27 87 13 12 26 12 46 -3 155 -21 161 -21 194 5 248 53 108 194 112 229 6
18 -55 14 -181 -10 -274 -24 -94 -23 -120 5 -130 37 -14 62 6 86 67 21 52 23
75 24 219 l0 160 -30 49 c-39 62 -85 87 -164 86 -64 0 -99 -14 -143 -54 l-27
-25 6 51 c5 41 3 52 -12 63 -28 21 -53 17 -70 -10z"/>
<path d="M9548 770 c-71 -38 -107 -130 -87 -220 15 -65 41 -101 119 -164 61
-50 70 -61 70 -90 0 -90 -125 -95 -154 -6 -10 31 -15 35 -46 35 -45 0 -63 -32
-50 -90 25 -109 191 -151 296 -75 39 28 64 81 64 138 0 71 -16 97 -105 177
-80 72 -98 107 -83 160 18 66 91 76 144 20 51 -54 104 -44 104 20 0 40 -22 71
-70 95 -52 27 -151 27 -202 0z"/>
<path d="M9953 752 c-25 -16 -33 -69 -33 -235 -1 -103 -6 -204 -15 -252 -13
-72 -13 -81 2 -97 9 -10 27 -18 39 -18 54 0 72 84 81 375 5 181 4 202 -11 218
-18 18 -43 22 -63 9z"/>
</g>
</svg>
