<svg width="1118" height="425" xmlns="http://www.w3.org/2000/svg" preserveAspectRatio="xMidYMid meet">
 <metadata>Created by potrace 1.15, written by Peter Selinger 2001-2017</metadata>

 <g>
  <title>background</title>
  <rect fill="none" id="canvas_background" height="402" width="582" y="-1" x="-1"/>
 </g>
 <g>
  <title>Layer 1</title>
  <path id="svg_3" d="m42.406195,6.398961c-5,2.2 -7.4,6.1 -7.4,12.2c0,4.9 -0.2,5.4 -3.3,7.3c-5.1,3.1 -7.1,7.6 -6.5,14.9c0.5,7.2 2.7,10.3 9.5,13.4c5,2.2 4.7,1.5 6.8,20.3c5.8,53.900001 6.9,114.800002 3,159.000002c-0.8,9.3 -3.1,29.1 -5.1,43.800001c-3.7,26.8 -3.7,26.8 -1.7,29.5c5,6.8 12.9,8.8 20.6,5.4c3.6,-1.6 5.2,-3.2 7.3,-6.9l2.7,-4.8l33.600001,0c25.7,-0.1 36.800001,-0.5 47.000001,-1.8c75.200001,-9.6 119.600002,-38.900001 137.500002,-90.500001c6.6,-19.1 8.1,-29.4 8,-56.700001c0,-26 -1.1,-34.400001 -7,-52.100001c-12.5,-37.500001 -42.100001,-65.300001 -83.900001,-78.700001c-34.200001,-11 -76.100001,-13.3 -120.000002,-6.6c-7.1,1 -13.7,2.1 -14.5,2.4c-1,0.3 -2.2,-1 -3.5,-3.7c-1.2,-2.6 -3.3,-4.8 -5.5,-6c-4.1,-2.1 -13.1,-2.3 -17.6,-0.4zm120.100002,39.100001c30.4,4.6 51.400001,14.2 68.600001,31.4c14.4,14.4 21.5,27.8 26,49.100001c2.8,13.5 3.1,38.600001 0.5,52.900001c-7,39.400001 -28.9,65.300001 -65.600001,77.500001c-23,7.6 -44.700001,10.5 -86.400001,11.3l-30.9,0.6l0.6,-5.9c4.1,-37.600001 4.1,-37.600001 4.2,-88.400001c0,-52.300001 -0.9,-69.400001 -5.4,-108.500002c-1.1,-9.1 -1.4,-15.2 -0.8,-15.6c1.5,-1.1 24.6,-4.5 42.200001,-6.3c7.6,-0.8 37.000001,0.4 47.000001,1.9z"/>
  <text font-style="normal" font-weight="bold" stroke="null" transform="matrix(15.596307754516602,0,0,12.145733833312988,-4742.887750983238,-2056.213740155101) " xml:space="preserve" text-anchor="start" font-family="'Times New Roman', Times, serif" font-size="26" id="svg_15" y="190.374333" x="322.117687" stroke-opacity="null" stroke-width="0" fill="#000000">AVA</text>
  <ellipse ry="18.004646" rx="444.114613" id="svg_17" cy="294.521198" cx="589.007744" stroke-opacity="null" stroke-width="null" stroke="null" fill="#89694b"/>
  <g id="svg_16">
   <path fill="#36825b" id="svg_5" d="m934.484527,299.49174c-6.6,6.6 1.6,16.3 9.3,10.9c1.6,-1.1 2.2,-2.5 2.2,-5.5c0,-7.3 -6.6,-10.4 -11.5,-5.4z"/>
   <path fill="#36825b" id="svg_6" d="m742.684524,299.69174c-0.4,0.3 -0.7,1.6 -0.7,2.9c0,1.2 -0.7,2.4 -1.5,2.8c-2.3,0.9 -1.9,7.1 0.5,8.7c1.7,1.1 2.3,3.1 3,10.4c1.5,13.9 1.2,39.900001 -0.6,53.500001c-1.2,9.4 -1.3,12.4 -0.4,13.6c1.8,2 6.6,1.8 8.2,-0.5c1.1,-1.6 3.2,-1.9 15.8,-2.4c20.4,-0.8 31.7,-4.3 41.300001,-12.8c14.3,-12.5 16.8,-42.000001 5.1,-58.200001c-1.9,-2.6 -5.5,-6.3 -8.2,-8.2c-9.6,-7.1 -28.8,-10.8 -44.700001,-8.6c-6.9,1 -8.1,0.9 -9.1,-0.4c-1.1,-1.5 -7.4,-2.1 -8.7,-0.8zm46.700001,14.3c13,4.9 19.6,15.1 19.6,29.9c0,11.4 -2.1,17.3 -8.4,23.7c-7.3,7.2 -14.4,9.4 -32.3,10.1l-13.1,0.6l0.5,-18.9c0.4,-11.4 0.1,-24.2 -0.6,-32.3c-0.7,-7.3 -0.9,-13.6 -0.6,-13.9c2.9,-2.9 26.5,-2.3 34.900001,0.8z"/>
   <path fill="#36825b" id="svg_7" d="m985.984528,309.99174c-0.8,0.5 -3.8,1 -6.6,1c-6.7,0 -11.5,2.1 -16.2,7c-7.7,7.9 -8.4,23.1 -1.4,29.3l2,1.9l-3.8,5.5c-4.4,6.3 -5.8,10.7 -3.9,12.9c1,1.3 3.1,1.4 12.4,0.8c15.4,-0.9 21.4,1.2 18.5,6.7c-1.9,3.4 -7,5.2 -15.2,5.3c-7.1,0.1 -7.9,-0.1 -10.5,-2.7c-4.9,-4.6 -10.3,-3.2 -10.3,2.6c0,6.8 10.9,11.6 23.5,10.3c15.1,-1.6 23.2,-7.1 24.2,-16.7c0.5,-5.6 -2,-10.6 -6.7,-13.4c-2.9,-1.7 -5.3,-2 -14.2,-2c-6.8,0 -10.4,-0.4 -10.1,-1c2.1,-3.7 3.8,-4.5 9.7,-4.5c8.2,0 12.9,-1.5 17.3,-5.3c8,-7.1 9.2,-15.3 3.8,-28c-0.6,-1.4 -0.2,-1.7 2.7,-1.7c5.8,0 7.9,-4.4 3.6,-7.4c-2.6,-1.8 -16.3,-2.2 -18.8,-0.6zm1.6,13.4c3,3 3.4,4 3.4,8.6c0,4.4 -0.4,5.6 -2.9,8.1c-2.6,2.5 -3.7,2.9 -8.6,2.9c-6.9,0 -9.3,-1.2 -11,-5.4c-2.4,-5.8 1.1,-14.2 7,-16.6c4.5,-1.9 8.6,-1.1 12.1,2.4z"/>
   <path fill="#36825b" id="svg_8" d="m848.384526,313.89174c-8.9,2.3 -17.2,11.2 -20.5,22.3c-1.8,5.7 -2.1,8.7 -1.7,16.2c0.9,17.1 8,24.6 23.3,24.6c7.8,0 11.9,-1.5 17.4,-6.6c3.5,-3 4.1,-4.3 3.9,-6.8c-0.2,-2.1 -1.1,-3.5 -3,-4.6c-2.6,-1.4 -2.9,-1.3 -6,1.6c-5.4,5 -8,6.4 -12.4,6.4c-6.9,0 -12.4,-6.2 -12.4,-14l0,-3l7.5,0c7.7,0 25.9,-3.1 29.4,-5c2.7,-1.4 3.4,-4.6 2.9,-12c-0.5,-7.3 -4.3,-13.4 -10.6,-16.8c-4.6,-2.5 -12.8,-3.6 -17.8,-2.3zm11.6,10.6c3,1.6 5.2,4.9 6.4,9.7c0.6,2.5 0.3,2.7 -4.7,3.8c-2.8,0.7 -9.4,1.4 -14.4,1.7c-10.9,0.7 -11.2,0.3 -6,-7.3c2.1,-3.2 4.8,-5.7 7.7,-7.2c5.2,-2.6 7.1,-2.7 11,-0.7z"/>
   <path fill="#36825b" id="svg_9" d="m1014.484528,315.39174c-0.9,1.4 -1.9,5 -2.2,8c-0.6,6.2 2.5,50.700001 3.9,54.400001c1.2,3.6 6.8,2.7 8.7,-1.3c1.2,-2.6 1.2,-4.6 -0.3,-15.5c-2.1,-16.1 -2.1,-19.4 0.5,-24.8c5.3,-10.8 19.4,-11.2 22.9,-0.6c1.8,5.5 1.4,18.1 -1,27.4c-2.4,9.4 -2.3,12 0.5,13c3.7,1.4 6.2,-0.6 8.6,-6.7c2.1,-5.2 2.3,-7.5 2.4,-21.9l0,-16l-3,-4.9c-3.9,-6.2 -8.5,-8.7 -16.4,-8.6c-6.4,0 -9.9,1.4 -14.3,5.4l-2.7,2.5l0.6,-5.1c0.5,-4.1 0.3,-5.2 -1.2,-6.3c-2.8,-2.1 -5.3,-1.7 -7,1z"/>
   <path fill="#36825b" id="svg_10" d="m895.784527,315.99174c-7.1,3.8 -10.7,13 -8.7,22c1.5,6.5 4.1,10.1 11.9,16.4c6.1,5 7,6.1 7,9c0,9 -12.5,9.5 -15.4,0.6c-1,-3.1 -1.5,-3.5 -4.6,-3.5c-4.5,0 -6.3,3.2 -5,9c2.5,10.9 19.1,15.1 29.6,7.5c3.9,-2.8 6.4,-8.1 6.4,-13.8c0,-7.1 -1.6,-9.7 -10.5,-17.7c-8,-7.2 -9.8,-10.7 -8.3,-16c1.8,-6.6 9.1,-7.6 14.4,-2c5.1,5.4 10.4,4.4 10.4,-2c0,-4 -2.2,-7.1 -7,-9.5c-5.2,-2.7 -15.1,-2.7 -20.2,0z"/>
   <path fill="#36825b" id="svg_11" d="m936.284527,317.79174c-2.5,1.6 -3.3,6.9 -3.3,23.5c-0.1,10.3 -0.6,20.4 -1.5,25.2c-1.3,7.2 -1.3,8.1 0.2,9.7c0.9,1 2.7,1.8 3.9,1.8c5.4,0 7.2,-8.4 8.1,-37.500001c0.5,-18.1 0.4,-20.2 -1.1,-21.8c-1.8,-1.8 -4.3,-2.2 -6.3,-0.9z"/>
  </g>
 </g>
</svg>